# xmcd
#
# Track frame offsets:
#	150
#	13447
#	34900
#	41191
#	50063
#	59608
#	74110
#	83068
#	103777
#	117127
#	128906
#	148809
#
# Disc length: 2164 seconds
#
# Revision: 0
# Processed by: cddbd v1.5.1PL2 Copyright (c) Steve Scherf et al.
# Submitted via: dBpowerAMP V4.0
#
DISCID=c008720c
DTITLE=Sandman - Live and Suspicious!
DYEAR=2004
DGENRE=Country
TTITLE0=Suspicious
TTITLE1=Shell Shocked Man/Radio Works Fine
TTITLE2=Scapegoat Song
TTITLE3=Beer Pressure
TTITLE4=Laborer
TTITLE5=Revolution Come
TTITLE6=Beauty Myth
TTITLE7=Please, Louise
TTITLE8=Ghost
TTITLE9=Shenanigans
TTITLE10=Saddle Bum/Tribute to Rapper's Delight
TTITLE11=Imaginary World
EXTD=
EXTT0=
EXTT1=
EXTT2=
EXTT3=
EXTT4=
EXTT5=
EXTT6=
EXTT7=
EXTT8=
EXTT9=
EXTT10=
EXTT11=
PLAYORDER=
